<svg xmlns="http://www.w3.org/2000/svg" xmlns:xlink="http://www.w3.org/1999/xlink" width="500" zoomAndPan="magnify" viewBox="0 0 375 374.999991" height="500" preserveAspectRatio="xMidYMid meet" version="1.0"><defs><g/><clipPath id="113c725f53"><path d="M 69.589844 209.957031 L 304.894531 209.957031 L 304.894531 217.117188 L 69.589844 217.117188 Z M 69.589844 209.957031 " clip-rule="nonzero"/></clipPath><clipPath id="9cb0a6df98"><path d="M 69.589844 217.046875 L 304.894531 217.046875 L 304.894531 222.367188 L 69.589844 222.367188 Z M 69.589844 217.046875 " clip-rule="nonzero"/></clipPath><clipPath id="7e3a262020"><path d="M 69.589844 222.367188 L 304.894531 222.367188 L 304.894531 229.777344 L 69.589844 229.777344 Z M 69.589844 222.367188 " clip-rule="nonzero"/></clipPath><clipPath id="8f2156d7cb"><path d="M 69.589844 229.777344 L 304.894531 229.777344 L 304.894531 235.128906 L 69.589844 235.128906 Z M 69.589844 229.777344 " clip-rule="nonzero"/></clipPath><clipPath id="10c1b24d9d"><path d="M 69.589844 235.128906 L 304.894531 235.128906 L 304.894531 241.152344 L 69.589844 241.152344 Z M 69.589844 235.128906 " clip-rule="nonzero"/></clipPath></defs><rect x="-37.5" width="450" fill="#ffffff" y="-37.499999" height="449.999989" fill-opacity="1"/><rect x="-37.5" width="450" fill="#e4dbc9" y="-37.499999" height="449.999989" fill-opacity="1"/><g clip-path="url(#113c725f53)"><path fill="#edbd68" d="M 69.589844 209.957031 L 304.894531 209.957031 L 304.894531 217.117188 L 69.589844 217.117188 Z M 69.589844 209.957031 " fill-opacity="1" fill-rule="nonzero"/></g><g clip-path="url(#9cb0a6df98)"><path fill="#f2704e" d="M 69.589844 217.046875 L 304.894531 217.046875 L 304.894531 222.367188 L 69.589844 222.367188 Z M 69.589844 217.046875 " fill-opacity="1" fill-rule="nonzero"/></g><g clip-path="url(#7e3a262020)"><path fill="#de5152" d="M 69.589844 222.367188 L 304.894531 222.367188 L 304.894531 229.777344 L 69.589844 229.777344 Z M 69.589844 222.367188 " fill-opacity="1" fill-rule="nonzero"/></g><g clip-path="url(#8f2156d7cb)"><path fill="#a43845" d="M 69.589844 229.777344 L 304.894531 229.777344 L 304.894531 235.128906 L 69.589844 235.128906 Z M 69.589844 229.777344 " fill-opacity="1" fill-rule="nonzero"/></g><g clip-path="url(#10c1b24d9d)"><path fill="#602b53" d="M 69.589844 235.128906 L 304.894531 235.128906 L 304.894531 241.152344 L 69.589844 241.152344 Z M 69.589844 235.128906 " fill-opacity="1" fill-rule="nonzero"/></g><g fill="#1e1e1e" fill-opacity="1"><g transform="translate(44.386625, 186.726261)"><g><path d="M 0.601562 -13.054688 C 0.601562 -3.894531 8.996094 0.84375 17.472656 0.804688 C 28.679688 0.761719 34.101562 -5.34375 34.101562 -13.214844 C 34.101562 -31.570312 5.503906 -29.640625 5.503906 -37.234375 C 5.503906 -37.636719 5.90625 -38.4375 6.425781 -38.4375 C 11.808594 -38.4375 18.476562 -30.929688 26.027344 -30.929688 C 28.71875 -30.929688 32.9375 -33.335938 32.9375 -37.394531 C 32.9375 -38.4375 32.65625 -39.28125 32.171875 -40.164062 L 6.023438 -40.164062 C 3.496094 -40.164062 1.125 -36.109375 1.125 -32.855469 C 1.125 -28.195312 3.535156 -24.660156 6.949219 -21.808594 C 3.253906 -20.402344 0.601562 -16.789062 0.601562 -13.054688 Z M 28.917969 -5.945312 C 28.917969 -4.257812 27.351562 -2.8125 25.023438 -2.8125 C 16.546875 -2.8125 8.234375 -15.585938 8.074219 -20.925781 C 16.308594 -14.660156 28.917969 -11.566406 28.917969 -5.945312 Z M 28.917969 -5.945312 "/></g></g></g><g fill="#1e1e1e" fill-opacity="1"><g transform="translate(79.086225, 186.726261)"><g><path d="M 1.6875 -28.316406 L 1.6875 -10.160156 C 1.6875 -2.8125 5.0625 0.804688 11.367188 0.804688 C 13.9375 0.804688 16.105469 -0.363281 17.3125 -1.648438 C 16.027344 -2.933594 15.464844 -5.34375 15.464844 -7.589844 L 15.464844 -28.316406 L 17.632812 -28.316406 L 17.632812 -29.921875 L 15.464844 -29.921875 L 15.464844 -40.164062 L 15.0625 -40.164062 C 12.894531 -36.671875 4.898438 -31.25 -0.402344 -29.882812 L -0.402344 -28.316406 Z M 1.6875 -28.316406 "/></g></g></g><g fill="#1e1e1e" fill-opacity="1"><g transform="translate(96.717157, 186.726261)"><g><path d="M 0.601562 -14.941406 C 0.601562 -3.574219 7.148438 0.804688 14.820312 0.804688 C 15.222656 0.804688 18.515625 0.804688 20.203125 -1.566406 C 22.011719 0.160156 23.9375 0.804688 27.273438 0.804688 C 29.84375 0.804688 32.011719 -0.363281 33.21875 -1.648438 C 31.933594 -2.933594 31.371094 -5.34375 31.371094 -7.589844 L 31.328125 -29.921875 L 14.820312 -29.921875 C 7.511719 -29.921875 0.601562 -26.148438 0.601562 -14.941406 Z M 14.660156 -7.632812 L 14.660156 -22.574219 C 14.660156 -26.75 14.820312 -28.519531 16.667969 -28.519531 C 17.070312 -28.519531 17.390625 -28.316406 17.671875 -28.035156 L 17.714844 -4.820312 C 17.714844 -3.050781 17.753906 -0.601562 16.226562 -0.601562 C 14.417969 -0.601562 14.660156 -4.296875 14.660156 -7.632812 Z M 14.660156 -7.632812 "/></g></g></g><g fill="#1e1e1e" fill-opacity="1"><g transform="translate(129.328354, 186.726261)"><g><path d="M 0 -29.921875 L 16.1875 0.0390625 C 14.699219 2.046875 11.285156 4.617188 11.285156 8.875 C 11.285156 13.054688 14.699219 15.664062 17.875 16.226562 L 24.460938 6.828125 C 22.171875 6.507812 17.3125 3.414062 17.230469 -0.402344 L 32.855469 -29.921875 L 20.566406 -29.921875 C 20.125 -29.921875 19.601562 -29.402344 19.601562 -28.636719 C 19.601562 -24.941406 24.378906 -22.453125 24.378906 -18.558594 C 24.378906 -17.191406 23.65625 -15.304688 22.734375 -14.136719 L 14.300781 -29.921875 Z M 0 -29.921875 "/></g></g></g><g fill="#1e1e1e" fill-opacity="1"><g transform="translate(162.180523, 186.726261)"><g><path d="M 16.988281 0.804688 C 29.5625 0.804688 30.929688 -9.277344 27.753906 -10.363281 C 27.511719 -8.3125 24.378906 -6.585938 21.808594 -6.585938 C 15.90625 -6.585938 11.6875 -13.574219 11.6875 -21.972656 C 11.6875 -25.664062 12.773438 -29.320312 14.820312 -29.320312 C 19.078125 -29.320312 20.402344 -15.664062 20.402344 -9.601562 L 20.765625 -9.480469 L 28.917969 -26.550781 C 26.992188 -28.960938 21.769531 -30.765625 16.386719 -30.765625 C 6.910156 -30.765625 0.601562 -24.460938 0.601562 -14.980469 C 0.601562 -5.503906 7.511719 0.804688 16.988281 0.804688 Z M 16.988281 0.804688 "/></g></g></g><g fill="#1e1e1e" fill-opacity="1"><g transform="translate(191.7796, 186.726261)"><g><path d="M 0.601562 -14.941406 C 0.601562 -3.574219 7.148438 0.804688 14.820312 0.804688 C 15.222656 0.804688 18.515625 0.804688 20.203125 -1.566406 C 22.011719 0.160156 23.9375 0.804688 27.273438 0.804688 C 29.84375 0.804688 32.011719 -0.363281 33.21875 -1.648438 C 31.933594 -2.933594 31.371094 -5.34375 31.371094 -7.589844 L 31.328125 -29.921875 L 14.820312 -29.921875 C 7.511719 -29.921875 0.601562 -26.148438 0.601562 -14.941406 Z M 14.660156 -7.632812 L 14.660156 -22.574219 C 14.660156 -26.75 14.820312 -28.519531 16.667969 -28.519531 C 17.070312 -28.519531 17.390625 -28.316406 17.671875 -28.035156 L 17.714844 -4.820312 C 17.714844 -3.050781 17.753906 -0.601562 16.226562 -0.601562 C 14.417969 -0.601562 14.660156 -4.296875 14.660156 -7.632812 Z M 14.660156 -7.632812 "/></g></g></g><g fill="#1e1e1e" fill-opacity="1"><g transform="translate(224.390803, 186.726261)"><g><path d="M 1.6875 -28.316406 L 1.6875 -10.160156 C 1.6875 -2.8125 5.0625 0.804688 11.367188 0.804688 C 13.9375 0.804688 16.105469 -0.363281 17.3125 -1.648438 C 16.027344 -2.933594 15.464844 -5.34375 15.464844 -7.589844 L 15.464844 -28.316406 L 17.632812 -28.316406 L 17.632812 -29.921875 L 15.464844 -29.921875 L 15.464844 -40.164062 L 15.0625 -40.164062 C 12.894531 -36.671875 4.898438 -31.25 -0.402344 -29.882812 L -0.402344 -28.316406 Z M 1.6875 -28.316406 "/></g></g></g><g fill="#1e1e1e" fill-opacity="1"><g transform="translate(242.02173, 186.726261)"><g><path d="M 1.648438 -29.921875 L 1.648438 0 L 16.105469 0 L 16.105469 -29.921875 Z M 1.203125 -36.914062 C 1.203125 -31.933594 4.417969 -31.972656 8.917969 -31.972656 C 13.292969 -31.972656 16.589844 -31.933594 16.589844 -36.914062 C 16.589844 -41.492188 13.496094 -41.8125 8.917969 -41.8125 C 4.296875 -41.8125 1.203125 -41.492188 1.203125 -36.914062 Z M 1.203125 -36.914062 "/></g></g></g><g fill="#1e1e1e" fill-opacity="1"><g transform="translate(259.813312, 186.726261)"><g><path d="M 0.601562 -14.980469 C 0.601562 -5.503906 6.746094 0.804688 15.945312 0.804688 C 25.183594 0.804688 31.328125 -5.503906 31.328125 -14.980469 C 31.328125 -24.421875 25.183594 -30.726562 15.945312 -30.726562 C 6.746094 -30.726562 0.601562 -24.421875 0.601562 -14.980469 Z M 15.984375 -29.441406 C 16.871094 -29.441406 17.59375 -28.597656 17.59375 -25.664062 C 17.59375 -25.023438 17.59375 -15.703125 17.59375 -14.980469 C 17.59375 -14.257812 17.59375 -4.941406 17.59375 -4.296875 C 17.59375 -1.367188 16.871094 -0.523438 15.984375 -0.523438 C 15.101562 -0.523438 14.378906 -1.367188 14.378906 -4.296875 C 14.378906 -4.941406 14.378906 -14.257812 14.378906 -14.980469 C 14.378906 -15.703125 14.378906 -25.023438 14.378906 -25.664062 C 14.378906 -28.597656 15.101562 -29.441406 15.984375 -29.441406 Z M 15.984375 -29.441406 "/></g></g></g><g fill="#1e1e1e" fill-opacity="1"><g transform="translate(291.741753, 186.726261)"><g><path d="M 1.203125 -29.921875 L 1.203125 0 L 15.664062 0 L 15.664062 -22.894531 C 15.664062 -24.621094 15.664062 -26.789062 17.351562 -26.789062 C 18.917969 -26.789062 19.039062 -25.144531 19.039062 -22.894531 L 19.039062 0 L 33.539062 0 L 33.539062 -21.246094 C 33.539062 -25.785156 31.128906 -30.726562 24.019531 -30.726562 C 20.324219 -30.726562 17.472656 -29.5625 15.664062 -28.117188 L 15.664062 -29.921875 Z M 1.203125 -29.921875 "/></g></g></g><g fill="#1e1e1e" fill-opacity="1"><g transform="translate(84.003615, 209.876931)"><g><path d="M 7.46875 0 L 6.359375 0 L 4.828125 -5.03125 L 3.28125 0 L 2.15625 0 L 0.03125 -6.4375 L 1.203125 -6.4375 L 2.765625 -1.203125 L 4.3125 -6.4375 L 5.390625 -6.4375 L 6.953125 -1.203125 L 8.5 -6.4375 L 9.625 -6.4375 Z M 7.46875 0 "/></g></g></g><g fill="#1e1e1e" fill-opacity="1"><g transform="translate(100.623235, 209.876931)"><g><path d="M 6.4375 0 L 5.34375 0 L 5.34375 -2.671875 L 1.9375 -2.671875 L 1.9375 0 L 0.84375 0 L 0.84375 -6.4375 L 1.9375 -6.4375 L 1.9375 -3.640625 L 5.34375 -3.640625 L 5.34375 -6.4375 L 6.4375 -6.4375 Z M 6.4375 0 "/></g></g></g><g fill="#1e1e1e" fill-opacity="1"><g transform="translate(114.99022, 209.876931)"><g><path d="M 3.484375 -2.140625 L 3.484375 0 L 2.40625 0 L 2.40625 -2.109375 L 0.015625 -6.4375 L 1.109375 -6.4375 L 2.9375 -3.296875 L 4.75 -6.4375 L 5.859375 -6.4375 Z M 3.484375 -2.140625 "/></g></g></g><g fill="#1e1e1e" fill-opacity="1"><g transform="translate(127.941263, 209.876931)"><g/></g></g><g fill="#1e1e1e" fill-opacity="1"><g transform="translate(137.407629, 209.876931)"><g><path d="M 5.25 -5.46875 L 3.203125 -5.46875 L 3.203125 0 L 2.109375 0 L 2.109375 -5.46875 L 0.078125 -5.46875 L 0.078125 -6.4375 L 5.25 -6.4375 Z M 5.25 -5.46875 "/></g></g></g><g fill="#1e1e1e" fill-opacity="1"><g transform="translate(149.825397, 209.876931)"><g><path d="M 6.4375 0 L 5.34375 0 L 5.34375 -2.671875 L 1.9375 -2.671875 L 1.9375 0 L 0.84375 0 L 0.84375 -6.4375 L 1.9375 -6.4375 L 1.9375 -3.640625 L 5.34375 -3.640625 L 5.34375 -6.4375 L 6.4375 -6.4375 Z M 6.4375 0 "/></g></g></g><g fill="#1e1e1e" fill-opacity="1"><g transform="translate(164.192385, 209.876931)"><g><path d="M 5.453125 -5.46875 L 1.9375 -5.46875 L 1.9375 -3.734375 L 5.078125 -3.734375 L 5.078125 -2.75 L 1.9375 -2.75 L 1.9375 -0.96875 L 5.5625 -0.96875 L 5.5625 0 L 0.84375 0 L 0.84375 -6.4375 L 5.453125 -6.4375 Z M 5.453125 -5.46875 "/></g></g></g><g fill="#1e1e1e" fill-opacity="1"><g transform="translate(177.318122, 209.876931)"><g/></g></g><g fill="#1e1e1e" fill-opacity="1"><g transform="translate(186.784483, 209.876931)"><g><path d="M 6.4375 0 L 5.34375 0 L 5.34375 -2.671875 L 1.9375 -2.671875 L 1.9375 0 L 0.84375 0 L 0.84375 -6.4375 L 1.9375 -6.4375 L 1.9375 -3.640625 L 5.34375 -3.640625 L 5.34375 -6.4375 L 6.4375 -6.4375 Z M 6.4375 0 "/></g></g></g><g fill="#1e1e1e" fill-opacity="1"><g transform="translate(201.15147, 209.876931)"><g><path d="M 5.453125 -5.46875 L 1.9375 -5.46875 L 1.9375 -3.734375 L 5.078125 -3.734375 L 5.078125 -2.75 L 1.9375 -2.75 L 1.9375 -0.96875 L 5.5625 -0.96875 L 5.5625 0 L 0.84375 0 L 0.84375 -6.4375 L 5.453125 -6.4375 Z M 5.453125 -5.46875 "/></g></g></g><g fill="#1e1e1e" fill-opacity="1"><g transform="translate(214.277208, 209.876931)"><g><path d="M 1.9375 -0.984375 L 4.71875 -0.984375 L 4.71875 0 L 0.84375 0 L 0.84375 -6.4375 L 1.9375 -6.4375 Z M 1.9375 -0.984375 "/></g></g></g><g fill="#1e1e1e" fill-opacity="1"><g transform="translate(226.281227, 209.876931)"><g><path d="M 1.9375 -0.984375 L 4.71875 -0.984375 L 4.71875 0 L 0.84375 0 L 0.84375 -6.4375 L 1.9375 -6.4375 Z M 1.9375 -0.984375 "/></g></g></g><g fill="#1e1e1e" fill-opacity="1"><g transform="translate(238.285246, 209.876931)"><g/></g></g><g fill="#1e1e1e" fill-opacity="1"><g transform="translate(247.751606, 209.876931)"><g><path d="M 6.4375 0 L 5.359375 0 L 1.9375 -4.625 L 1.9375 0 L 0.84375 0 L 0.84375 -6.4375 L 1.921875 -6.4375 L 5.359375 -1.8125 L 5.359375 -6.4375 L 6.4375 -6.4375 Z M 6.4375 0 "/></g></g></g><g fill="#1e1e1e" fill-opacity="1"><g transform="translate(262.127782, 209.876931)"><g><path d="M 1.296875 -5.53125 C 1.953125 -6.15625 2.757812 -6.46875 3.71875 -6.46875 C 4.6875 -6.46875 5.5 -6.15625 6.15625 -5.53125 C 6.8125 -4.914062 7.140625 -4.144531 7.140625 -3.21875 C 7.140625 -2.300781 6.8125 -1.523438 6.15625 -0.890625 C 5.5 -0.265625 4.6875 0.046875 3.71875 0.046875 C 2.757812 0.046875 1.953125 -0.265625 1.296875 -0.890625 C 0.640625 -1.523438 0.3125 -2.300781 0.3125 -3.21875 C 0.3125 -4.144531 0.640625 -4.914062 1.296875 -5.53125 Z M 3.734375 -5.5 C 3.097656 -5.5 2.550781 -5.273438 2.09375 -4.828125 C 1.644531 -4.390625 1.421875 -3.851562 1.421875 -3.21875 C 1.421875 -2.582031 1.644531 -2.039062 2.09375 -1.59375 C 2.550781 -1.144531 3.097656 -0.921875 3.734375 -0.921875 C 4.367188 -0.921875 4.910156 -1.144531 5.359375 -1.59375 C 5.804688 -2.039062 6.03125 -2.582031 6.03125 -3.21875 C 6.03125 -3.851562 5.804688 -4.390625 5.359375 -4.828125 C 4.910156 -5.273438 4.367188 -5.5 3.734375 -5.5 Z M 3.734375 -5.5 "/></g></g></g><g fill="#1e1e1e" fill-opacity="1"><g transform="translate(276.669459, 209.876931)"><g><path d="M 5.25 -5.46875 L 3.203125 -5.46875 L 3.203125 0 L 2.109375 0 L 2.109375 -5.46875 L 0.078125 -5.46875 L 0.078125 -6.4375 L 5.25 -6.4375 Z M 5.25 -5.46875 "/></g></g></g><g fill="#1e1e1e" fill-opacity="1"><g transform="translate(289.087221, 209.876931)"><g><path d="M 0.875 -4.5625 L 0.046875 -4.5625 C 0.0664062 -5.144531 0.242188 -5.59375 0.578125 -5.90625 C 0.921875 -6.226562 1.378906 -6.390625 1.953125 -6.390625 C 2.515625 -6.390625 2.960938 -6.253906 3.296875 -5.984375 C 3.628906 -5.722656 3.796875 -5.347656 3.796875 -4.859375 C 3.796875 -4.585938 3.742188 -4.34375 3.640625 -4.125 C 3.535156 -3.914062 3.410156 -3.738281 3.265625 -3.59375 C 3.128906 -3.457031 2.988281 -3.320312 2.84375 -3.1875 C 2.707031 -3.050781 2.585938 -2.890625 2.484375 -2.703125 C 2.390625 -2.523438 2.34375 -2.320312 2.34375 -2.09375 L 1.53125 -2.09375 C 1.53125 -2.363281 1.570312 -2.601562 1.65625 -2.8125 C 1.75 -3.03125 1.851562 -3.207031 1.96875 -3.34375 C 2.09375 -3.476562 2.21875 -3.601562 2.34375 -3.71875 C 2.476562 -3.84375 2.585938 -3.988281 2.671875 -4.15625 C 2.765625 -4.320312 2.8125 -4.503906 2.8125 -4.703125 C 2.8125 -4.960938 2.722656 -5.160156 2.546875 -5.296875 C 2.378906 -5.429688 2.148438 -5.5 1.859375 -5.5 C 1.234375 -5.5 0.90625 -5.1875 0.875 -4.5625 Z M 1.5 -0.953125 C 1.613281 -1.066406 1.753906 -1.125 1.921875 -1.125 C 2.085938 -1.125 2.222656 -1.066406 2.328125 -0.953125 C 2.441406 -0.847656 2.5 -0.707031 2.5 -0.53125 C 2.5 -0.351562 2.441406 -0.207031 2.328125 -0.09375 C 2.222656 0.0195312 2.085938 0.078125 1.921875 0.078125 C 1.753906 0.078125 1.613281 0.0195312 1.5 -0.09375 C 1.394531 -0.207031 1.34375 -0.351562 1.34375 -0.53125 C 1.34375 -0.707031 1.394531 -0.847656 1.5 -0.953125 Z M 1.5 -0.953125 "/></g></g></g></svg>